<svg id="Capa_1" data-name="Capa 1" xmlns="http://www.w3.org/2000/svg" viewBox="0 0 100 100"><title>Glifo</title><g id="Layer_1" data-name="Layer 1"><path id="path606" d="M46.72,95V90.58a178.94,178.94,0,0,0-2.53-28.24A141.77,141.77,0,0,0,38,36.93Q30,15.57,20.82,15.57a7.94,7.94,0,0,0-6.7,3.59,15.77,15.77,0,0,0-2.56,9.36c0,5.08,1.61,10.32,4.89,15.73H9.79Q5,35.49,5,27.87A19.29,19.29,0,0,1,9.49,14.75,14.46,14.46,0,0,1,20.88,9.47c7.39,0,13.63,5,18.81,15s8.41,23.27,9.75,40h1.12q1.66-24.62,9.58-39.81c5.26-10.12,11.62-15.2,19-15.2a14.46,14.46,0,0,1,11.36,5.21A19,19,0,0,1,95,27.73q0,7.67-4.8,16.52H83.55c3.25-5.84,4.89-11.18,4.89-16.09a16.43,16.43,0,0,0-2.53-9.52A7.89,7.89,0,0,0,79.18,15c-5.94,0-11.49,6.66-16.61,19.91C60,41.67,57.78,50.44,56,61.22a183.34,183.34,0,0,0-2.65,29.63V95Z"/></g></svg>