<svg id="Capa_1" data-name="Capa 1" xmlns="http://www.w3.org/2000/svg" viewBox="0 0 100 100"><title>Glifo</title><path d="M22.18,58.17V55.73c0-4.58-.8-11-2.37-19.28S16.73,22.7,15.37,20.11a9.55,9.55,0,0,0-9-5.51H5V8.84h5.24c4.92,0,8.31,1.92,10.2,5.76q3.35,7,6.11,23.08,4-17.82,13.27-28.84l9.25-1.78q3.41,7.69,5.66,23.14L56,38.76q.63,4.5.84,6.39A62.54,62.54,0,0,0,59,56.77q6.76-12.93,18.72-13a16.9,16.9,0,0,1,12.23,5,16.11,16.11,0,0,1,5.06,12,17.83,17.83,0,0,1-5.1,12.85,16.73,16.73,0,0,1-12.47,5.27q-10,0-17.49-7.75-5.36,14-9.43,17.91T37.1,92.94H30.74V87.11h3q9,0,12.4-3.66c2.23-2.41,5.13-8.77,8.62-19.07a30.85,30.85,0,0,1-3.11-6.94,120.62,120.62,0,0,1-1.88-12.19L48,31.84Q46.22,18.6,43.87,13.62q-6,7.07-10.34,19.17C30.6,40.85,29.17,48,29.17,54.4v3.77Zm39.33,7c5.06,5.62,10.23,8.45,15.4,8.45A11.68,11.68,0,0,0,85.68,70a12.61,12.61,0,0,0,3.49-9.12,11.55,11.55,0,0,0-3.36-8.34,10.89,10.89,0,0,0-8.1-3.42Q67.39,49.13,61.51,65.22Z"/></svg>