<svg id="Capa_1" data-name="Capa 1" xmlns="http://www.w3.org/2000/svg" viewBox="0 0 100 100"><title>Glifo</title><g id="Layer_1" data-name="Layer 1"><path id="path636" d="M85.58,87.84C80.37,92.61,75.4,95,70.62,95a14.34,14.34,0,0,1-10.41-4.11A13.75,13.75,0,0,1,56,80.74q0-8.05,8.46-26l4.31-9.19q5-10.65,5-17.28,0-8.46-4.91-13.56c-3.29-3.45-7.63-5.14-13-5.14-5.08,0-9.16,1.52-12.31,4.54a16.12,16.12,0,0,0-4.67,12q0,6.87,4.38,16L45,45.78c2.92,6,4.38,10.45,4.38,13.33a16.26,16.26,0,0,1-5.21,11.94A16.92,16.92,0,0,1,31.9,76.13,16.74,16.74,0,0,1,19.53,71a16.91,16.91,0,0,1-5.11-12.47,16.72,16.72,0,0,1,5-12.2,16.24,16.24,0,0,1,12-5.14,18.71,18.71,0,0,1,5.57.92c-3.21-6.2-4.84-11.67-4.84-16.45a20.15,20.15,0,0,1,6.7-15.48Q45.66,4,55.8,4q11.14,0,17.91,6.54t6.73,17.41a33,33,0,0,1-1.13,9.29A101.34,101.34,0,0,1,74,50.16l-3.09,6.73C65.42,68.83,62.63,76.53,62.63,80A9,9,0,0,0,65,86.41a7.63,7.63,0,0,0,5.91,2.52q4.73,0,10.81-5.37ZM19.39,58.62a12.36,12.36,0,0,0,3.55,8.92,11.73,11.73,0,0,0,8.69,3.61,11.65,11.65,0,0,0,8.62-3.64,12.78,12.78,0,0,0,0-17.71,11.84,11.84,0,0,0-8.72-3.62,11.66,11.66,0,0,0-8.62,3.65A12.16,12.16,0,0,0,19.39,58.62Z"/></g></svg>