<svg id="Capa_1" data-name="Capa 1" xmlns="http://www.w3.org/2000/svg" viewBox="0 0 100 100"><title>Glifo</title><g id="Layer_1" data-name="Layer 1"><path id="path642" d="M25.42,31.72V76.09h-7.1V24.7A34.09,34.09,0,0,0,12.49,5.31H20a33.26,33.26,0,0,1,5.44,14,47,47,0,0,1,8.33-14l7-1.31q4.77,6.14,6,16.3a43.84,43.84,0,0,1,8.65-15L62.26,4A29.47,29.47,0,0,1,68,21.67V35.14a54.17,54.17,0,0,1,6.08-12.69L80,20.3a44.47,44.47,0,0,1,7.56,24.61A42.34,42.34,0,0,1,83,64.14,54.92,54.92,0,0,1,69.43,80.89c.56,4.16,3,8.85,7.31,14.11H68.4A37.34,37.34,0,0,1,63,84.88a48.48,48.48,0,0,1-16.28,5.29V84.1a48.18,48.18,0,0,0,14.91-5.32,57.33,57.33,0,0,1-.75-9.25v-43c0-7-1-12.31-3-15.9-5,5.39-8.73,13-11.13,22.78V76.09H39.61V28.9c0-8.78-1-14.88-3.1-18.3A56.67,56.67,0,0,0,25.42,31.72ZM68,74.26a44.22,44.22,0,0,0,9.33-13.58A39,39,0,0,0,80.41,45.3,38.62,38.62,0,0,0,76.7,28.8C73.17,33.13,70.31,38.92,68,46.15Z"/></g></svg>