<svg xmlns="http://www.w3.org/2000/svg" width="3000" height="230" viewBox="0 0 3000 230">
  <metadata><?xpacket begin="﻿" id="W5M0MpCehiHzreSzNTczkc9d"?>
<x:xmpmeta xmlns:x="adobe:ns:meta/" x:xmptk="Adobe XMP Core 5.6-c142 79.160924, 2017/07/13-01:06:39        ">
   <rdf:RDF xmlns:rdf="http://www.w3.org/1999/02/22-rdf-syntax-ns#">
      <rdf:Description rdf:about=""/>
   </rdf:RDF>
</x:xmpmeta>
                                                                                                    
                                                                                                    
                                                                                                    
                                                                                                    
                                                                                                    
                                                                                                    
                                                                                                    
                                                                                                    
                                                                                                    
                                                                                                    
                                                                                                    
                                                                                                    
                                                                                                    
                                                                                                    
                                                                                                    
                                                                                                    
                                                                                                    
                                                                                                    
                                                                                                    
                                                                                                    
                           
<?xpacket end="w"?></metadata>
<defs>
    <style>
      .cls-1 {
        fill: #737373;
      }

      .cls-1, .cls-10, .cls-11, .cls-12, .cls-2, .cls-3, .cls-4, .cls-5, .cls-6, .cls-7, .cls-8, .cls-9 {
        fill-rule: evenodd;
      }

      .cls-2 {
        fill: #91cef4;
      }

      .cls-3 {
        fill: #67002a;
      }

      .cls-4 {
        fill: #410049;
      }

      .cls-5 {
        fill: #583b1c;
      }

      .cls-6 {
        fill: #00acec;
      }

      .cls-7 {
        fill: #33a457;
      }

      .cls-8 {
        fill: red;
      }

      .cls-9 {
        fill: #497a39;
      }

      .cls-10 {
        fill: #fde92f;
      }

      .cls-11 {
        fill: #e6e6e6;
      }

      .cls-12 {
        fill: #e0922f;
      }
    </style>
  </defs>
  <path id="Forma_6" data-name="Forma 6" class="cls-1" d="M1384.94,177.426c3.28,11.88,11.13,27.574,11.13,27.574H1385.3a95.318,95.318,0,0,1-13.44-19.962,119.257,119.257,0,0,1-28.75,10.111V185.3s11.23-1.679,25.32-9.413a30.485,30.485,0,0,1-1.08-7.6V55.448s-0.9-16.119-7.18-16.119-16.16,30.448-16.16,30.448v96.717h-16.15V59.925s0-21.493-6.29-21.493-19.74,37.612-19.74,37.612V165.6h-18.85s1.79-107.463,1.79-115.522-10.77-20.6-10.77-20.6h12.57c6.28,0,15.26,24.179,15.26,24.179S1309.01,25,1325.16,25s19.75,30.448,19.75,30.448S1352.09,25,1366.45,25s17.06,29.552,17.06,29.552V86.765c2.71-8.014,11.1-31.317,17.05-31.317,7.18,0,22.44,17.015,22.44,51.045C1423,142.49,1404.26,164.387,1384.94,177.426Zm15.62-102.277c-5.95,0-14.34,19.01-17.05,25.548v64.756c13.18-11.5,24.59-28.509,24.23-42.841C1407.2,101.126,1407.74,75.149,1400.56,75.149Z"/>
  <path id="Forma_7" data-name="Forma 7" class="cls-2" d="M1500,205V185.986h217V205H1500Zm131.98-81.127h3.8s24.11-12.676,24.11-39.3-30.45-41.831-50.76-41.831-48.22,8.873-48.22,41.831,22.84,39.3,22.84,39.3h1.27v20.282H1500V123.873h59.64s-24.11-16.479-24.11-36.76S1557.11,25,1602.79,25s79.95,31.69,79.95,58.31c0,22.222-15,36.454-19.96,40.563H1717v20.282h-85.02V123.873Z"/>
  <path id="Forma_8" data-name="Forma 8" class="cls-3" d="M1954,187.266L1936.22,205V190.157c-9.01,1.058-49.78,4.321-49.78-23.285V55.148s-0.88-15.961-7.11-15.961-16,30.148-16,30.148V165.1h-16V59.581s0-21.281-6.22-21.281-19.55,37.241-19.55,37.241v88.67h-18.67s1.78-106.4,1.78-114.384S1794,29.434,1794,29.434h12.44c6.23,0,15.12,23.941,15.12,23.941S1828.67,25,1844.67,25s19.55,30.148,19.55,30.148S1871.33,25,1885.56,25s16.88,29.261,16.88,29.261v113.5c0,16.9,26.64,13.839,33.78,12.717V165.985Z"/>
  <path id="Forma_9" data-name="Forma 9" class="cls-4" d="M2178.86,118.173l-8.92-62.506-82.98,83.126,38.05,35.508-10.19,10.205L2078.08,147.7,2023.87,202l-10.92-10.934,54.48-54.043-34.83-34.886,7.28-7.29,36.1,33.692,83.87-83.214-63.94-10.249,1.45-13.121,84.41,11.663,10.18,84.556h-13.09Z"/>
  <path id="Forma_10" data-name="Forma 10" class="cls-5" d="M2398.39,174.154c-18.24,0-36.49-17-36.49-17S2348.06,205,2322.89,205c-10.7,0-20.13-.63-20.13-0.63V193.039s22.65,6.3,39.01-14.478c10.15-12.9,11.95-36.512,11.95-36.512s-8.81-12.59-11.95-37.141-5.04-68.616-11.96-68.616-30.2,49.1-30.2,64.839v30.846h-19.5s-0.63-94.426-27.06-94.426h-10.7V28.108s-4.4-1.889,18.88-1.889,28.94,62.951,28.94,62.951,14.47-65.469,45.3-64.21c8.17,0.334,12.86,36.271,17.03,65.108,3.21,22.228,6.88,38.761,6.88,38.761s20.14-23.291,39.01-23.291,34.61,8.183,34.61,31.475S2416.64,174.154,2398.39,174.154Zm-0.62-59.174c-23.29,0-33.35,25.81-33.35,25.81s7.55,22.662,33.35,22.662c18.24,0,28.94-13.219,28.94-24.55S2416.01,114.98,2397.77,114.98Z"/>
  <path id="Forma_11" data-name="Forma 11" class="cls-6" d="M2693.03,50.621l-62.49,40.71-20.83-40.71-62.49,37.87-20.83-37.87-65.33,40.71V76.183l72.9-51.124,20.83,42.6,63.44-40.71,21.78,39.763,63.43-41.657,24.62,55.858L2716.7,91.331ZM2554.79,181.272l63.44-40.71,21.78,39.763,63.43-41.656,24.62,55.858-11.36,10.414-23.67-40.71-62.49,40.71-20.83-40.71-62.49,37.87-20.83-37.87-65.33,40.71V189.793l72.9-51.124Z"/>
  <path id="Forma_12" data-name="Forma 12" class="cls-7" d="M2911.77,107.084h40.79V118.6h-40.77c3.1,48.635,42.17,86.357,42.17,86.357h-15.84s-39.07-37.722-42.17-86.357h-32.23c-3.1,48.635-42.16,86.357-42.16,86.357h-15.84s39.07-37.722,42.17-86.357H2805V107.084h42.9c-2.92-47.136-42.18-82.039-42.18-82.039h15.84s39.25,34.9,42.18,82.039h32.19c2.93-47.136,42.19-82.039,42.19-82.039h15.84S2914.7,59.948,2911.77,107.084Z"/>
  <path id="Forma_1" data-name="Forma 1" class="cls-8" d="M130.452,205.037h17.661s-2.355-32.941,3.533-65.883S175.2,35.625,195.211,35.625s25.9,10.588,25.9,23.529-10.6,34.118-10.6,34.118H223.47S255.5,25.037,202.276,25.037c-52.985,0-62.4,112.941-62.4,112.941S125.742,26.213,77.467,26.213,52.74,94.449,52.74,94.449H66.869s-24.726-54.118,9.42-54.118C130.452,40.331,130.452,205.037,130.452,205.037Z"/>
  <path id="Forma_2" data-name="Forma 2" class="cls-9" d="M462.347,34.988c-9.991,0-24.155,43.371-57.7,56.445a58.387,58.387,0,1,1-38.422.251c-32.154-12.656-40.679-56.03-56.793-56.03H299V25.444h11.319c24.191,0,37.508,62.811,74.571,62.811S450.362,25,460.349,25H473v9.988H462.347Zm-126.5,111.64a49.931,49.931,0,1,0,49.931-49.719A49.825,49.825,0,0,0,335.847,146.628Z"/>
  <path id="Forma_3" data-name="Forma 3" class="cls-10" d="M717,195.256v9.231s-46.566-9.1-92.064-8.965C581.481,195.647,539,205,539,205v-9.744a403.209,403.209,0,0,1,40.92-7.525V42.269A403.059,403.059,0,0,1,539,34.744V25s42.481,9.353,85.936,9.478C670.434,34.609,717,25.513,717,25.513v9.231s-19.23,4.431-45.011,7.609V187.647C697.77,190.825,717,195.256,717,195.256ZM653.063,44.289c-9.144.741-18.649,1.224-28.132,1.224-8.861,0-17.659-.462-26.086-1.175V185.662c8.427-.713,17.225-1.175,26.086-1.175,9.483,0,18.988.484,28.132,1.225V44.289Z"/>
  <path id="Forma_4" data-name="Forma 4" class="cls-11" d="M845.234,52.624a45.126,45.126,0,1,1-36.985,1.245C819.717,47.158,860.673,25,901.746,25,950.124,25,1004,48.119,1004,48.119V67.936s-43.98-25.321-98.955-25.321C867.674,42.615,851.67,48.714,845.234,52.624Zm-49.59,41.734A32.436,32.436,0,1,0,828.08,61.881,32.457,32.457,0,0,0,795.644,94.358Zm146.122,83.018a45.126,45.126,0,1,1,36.985-1.245C967.283,182.842,926.327,205,885.254,205,836.876,205,783,181.881,783,181.881V162.064s43.98,25.321,98.955,25.321C919.326,187.385,935.33,181.286,941.766,177.376Zm49.59-41.734a32.436,32.436,0,1,0-32.436,32.477A32.457,32.457,0,0,0,991.356,135.642Z"/>
  <path id="Forma_5" data-name="Forma 5" class="cls-12" d="M1179.08,195.092c19,0,23.14-10.734,23.14-10.734l5.78,7.431S1190.65,205,1179.9,205s-32.22-5.78-32.22-31.376,36.36-70.184,36.36-101.56-18.18-37.156-33.06-37.156-30.57,9.908-30.57,33.028c0,18.476,8.95,40.6,12.56,48.76a33.763,33.763,0,1,1-15.83-13.862c-2.81-5.222-12.43-24.1-12.43-38.2,0-16.514,19.83-39.633,47.92-39.633s48.76,25.6,48.76,49.541-37.19,87.523-37.19,97.431S1160.07,195.092,1179.08,195.092Zm-99.58-61.1a24.38,24.38,0,1,0,24.38-24.358A24.372,24.372,0,0,0,1079.5,133.991Z"/>
</svg>
