<svg id="Capa_1" data-name="Capa 1" xmlns="http://www.w3.org/2000/svg" viewBox="0 0 100 100"><title>Glifo</title><g id="Layer_1" data-name="Layer 1"><path id="path648" d="M5,87.71V79.36H95v8.35ZM40.57,54.76v7.81H5V54.18H29.94c-4.55-4.64-6.8-9.86-6.8-15.62a25,25,0,0,1,8-18.51A26.13,26.13,0,0,1,50,12.29a26.11,26.11,0,0,1,18.89,7.76,24.82,24.82,0,0,1,8,18.51c0,5.76-2.25,11-6.8,15.62H95v8.39H59.43V54.76c6-3.92,9.09-9.19,9.09-15.79a17.44,17.44,0,0,0-5.47-12.86,18.35,18.35,0,0,0-26.06,0A17.44,17.44,0,0,0,31.52,39Q31.52,48.87,40.57,54.76Z"/></g></svg>