<svg id="Capa_1" data-name="Capa 1" xmlns="http://www.w3.org/2000/svg" viewBox="0 0 100 100"><title>Glifo</title><g id="Layer_1" data-name="Layer 1"><path id="path654" d="M18.72,75.49V25.85c0-8.25-1.94-14.94-5.85-19.93h7.47a36.56,36.56,0,0,1,5.33,13.69A47.64,47.64,0,0,1,33.83,5.92l6.71-1.35c3.15,3.67,5.12,8.94,6,15.77A47.19,47.19,0,0,1,54.9,5.92l6.85-1.35a29.47,29.47,0,0,1,5.6,18V65.88a63.35,63.35,0,0,0,.45,9.22A8.81,8.81,0,0,0,70,79.33c2,2.08,5.29,3.12,9.92,3.12h4.26v-7l11,9.94L84.13,95V88.24H77.76q-9.12,0-13.21-4.78c-2.77-3.23-4.15-8.32-4.15-15.36V26.2c0-7.07-1-12.14-3-15.22a50.38,50.38,0,0,0-10.83,22.5v42h-7V28.66q0-12.64-3-17.68A51.51,51.51,0,0,0,25.67,31.92V75.49Z"/></g></svg>