<svg id="Capa_1" data-name="Capa 1" xmlns="http://www.w3.org/2000/svg" viewBox="0 0 100 100"><title>Glifo</title><g id="Layer_1" data-name="Layer 1"><path id="path618" d="M36.52,37.71A22.8,22.8,0,0,1,28.86,33a41.61,41.61,0,0,1-6.48-9.26l-2.83-5.09C16.07,12.41,12.11,9.3,7.71,9.3H6.44V4h3.5q9.36,0,17,13.11l3.86,6.79c2.62,4.45,5.31,7.56,8.15,9.33S45.45,35.91,50,35.91s8.25-.88,11.09-2.68,5.53-4.88,8.11-9.33l3.93-6.79C78.19,8.38,83.86,4,90.06,4h3.5V9.3H92.32q-6.64,0-11.87,9.33l-2.83,5.09A41.61,41.61,0,0,1,71.14,33a23.21,23.21,0,0,1-7.66,4.73A34,34,0,0,1,76.1,49.31a28.44,28.44,0,0,1,4.42,15.47A28.89,28.89,0,0,1,71.45,86a30,30,0,0,1-42.87,0q-9.13-9-9.14-21.21A28.48,28.48,0,0,1,23.9,49.31,34,34,0,0,1,36.52,37.71ZM50,87.9a22.7,22.7,0,0,0,16.54-6.75A21.78,21.78,0,0,0,73.44,65a22.24,22.24,0,0,0-6.84-16.4A22.58,22.58,0,0,0,50,41.81,22.83,22.83,0,0,0,33.4,48.56,22.24,22.24,0,0,0,26.56,65a21.78,21.78,0,0,0,6.88,16.19A22.67,22.67,0,0,0,50,87.9Z"/></g></svg>