<svg id="Capa_1" data-name="Capa 1" xmlns="http://www.w3.org/2000/svg" viewBox="0 0 100 100"><title>Glifo</title><g id="Layer_1" data-name="Layer 1"><path id="path630" d="M5,75.77V68.12Q27.14,78.23,47.84,78.19q13.54,0,22-3.51a20.28,20.28,0,0,1-8.08-6.91A17.7,17.7,0,0,1,59.08,58,18.13,18.13,0,0,1,77.15,40,17.87,17.87,0,0,1,95,57.9q0,11.75-14.37,19.56T44.57,85.25C32.06,85.25,18.88,82.13,5,75.77ZM63.83,58a12.55,12.55,0,0,0,3.93,9.27,13.29,13.29,0,0,0,18.7.11,12.62,12.62,0,0,0,3.8-9.27,13,13,0,0,0-3.83-9.48,12.6,12.6,0,0,0-9.32-3.9A13.25,13.25,0,0,0,63.83,58ZM95,24.26v7.66C80.2,25.18,65.94,21.81,52.13,21.81c-9,0-16.38,1.16-22.07,3.54a19.75,19.75,0,0,1,8.11,6.92,17.36,17.36,0,0,1,2.71,9.8,17.27,17.27,0,0,1-5.31,12.67A17.5,17.5,0,0,1,22.82,60a17,17,0,0,1-12.58-5.24A17.17,17.17,0,0,1,5,42.17c0-7.86,4.78-14.43,14.37-19.63S41,14.75,55.43,14.75Q74.19,14.75,95,24.26ZM36.17,42a12.56,12.56,0,0,0-3.93-9.3,13.11,13.11,0,0,0-9.46-3.87,12.64,12.64,0,0,0-9.28,3.8,12.57,12.57,0,0,0-3.79,9.26,13,13,0,0,0,3.86,9.48,12.55,12.55,0,0,0,9.32,3.9,12.73,12.73,0,0,0,9.38-3.9A12.76,12.76,0,0,0,36.17,42Z"/></g></svg>